<svg width="24" height="24" viewBox="0 0 24 24" fill="none" xmlns="http://www.w3.org/2000/svg">
<path d="M23 16.3379V7.5721C22.9996 7.1878 22.8864 6.81036 22.6719 6.47765C22.4574 6.14493 22.149 5.86864 21.7778 5.67649L13.2222 1.2936C12.8506 1.10126 12.4291 1 12 1C11.5709 1 11.1494 1.10126 10.7778 1.2936L2.22222 5.67649C1.85099 5.86864 1.54264 6.14493 1.32812 6.47765C1.1136 6.81036 1.00044 7.1878 1 7.5721V16.3379C1.00044 16.7222 1.1136 17.0996 1.32812 17.4323C1.54264 17.7651 1.85099 18.0413 2.22222 18.2335L10.7778 22.6164C11.1494 22.8087 11.5709 22.91 12 22.91C12.4291 22.91 12.8506 22.8087 13.2222 22.6164L21.7778 18.2335C22.149 18.0413 22.4574 17.7651 22.6719 17.4323C22.8864 17.0996 22.9996 16.7222 23 16.3379Z" stroke="#C4C4C4" stroke-width="2" stroke-linecap="round" stroke-linejoin="round"/>
<path d="M1.33008 6.43262L12.0001 11.966L22.6701 6.43262" stroke="#C4C4C4" stroke-width="2" stroke-linecap="round" stroke-linejoin="round"/>
<path d="M12 23V11.9551" stroke="#C4C4C4" stroke-width="2" stroke-linecap="round" stroke-linejoin="round"/>
</svg>
