<svg width="22" height="22" viewBox="0 0 22 22" fill="none" xmlns="http://www.w3.org/2000/svg">
<path d="M1 5C1 2.79086 2.79086 1 5 1C7.20914 1 9 2.79086 9 5C9 7.20914 7.20914 9 5 9C2.79086 9 1 7.20914 1 5Z" stroke="#C4C4C4" stroke-width="2"/>
<path d="M1 17C1 14.7909 2.79086 13 5 13C7.20914 13 9 14.7909 9 17C9 19.2091 7.20914 21 5 21C2.79086 21 1 19.2091 1 17Z" stroke="#C4C4C4" stroke-width="2"/>
<path d="M13 5C13 2.79086 14.7909 1 17 1C19.2091 1 21 2.79086 21 5C21 7.20914 19.2091 9 17 9C14.7909 9 13 7.20914 13 5Z" stroke="#C4C4C4" stroke-width="2"/>
<path d="M13 17C13 14.7909 14.7909 13 17 13C19.2091 13 21 14.7909 21 17C21 19.2091 19.2091 21 17 21C14.7909 21 13 19.2091 13 17Z" stroke="#C4C4C4" stroke-width="2"/>
</svg>
