<svg width="40" height="40" viewBox="0 0 40 40" fill="none" xmlns="http://www.w3.org/2000/svg">
<circle cx="20" cy="20" r="20" fill="#B7FFCB"/>
<path fill-rule="evenodd" clip-rule="evenodd" d="M15.9445 9.485C14.4203 9.89475 12.906 10.3404 11.4028 10.8217C11.2668 10.8637 11.1453 10.9432 11.0525 11.0511C10.9596 11.159 10.8991 11.2909 10.8778 11.4317C9.98947 17.9267 12.0395 22.6667 14.4845 25.7883C15.7111 27.355 17.0395 28.515 18.1461 29.2767C18.7011 29.6567 19.1895 29.9333 19.5745 30.11C19.7678 30.1983 19.9245 30.2583 20.0445 30.2933C20.0974 30.3103 20.1514 30.3237 20.2061 30.3333C20.2178 30.3317 20.2695 30.325 20.3678 30.295C20.4878 30.2583 20.6445 30.1983 20.8378 30.11C21.2211 29.9333 21.7128 29.6567 22.2661 29.2767C23.6538 28.303 24.8881 27.1272 25.9278 25.7883C28.3728 22.6667 30.4228 17.9267 29.5345 11.4317C29.5132 11.2909 29.4527 11.159 29.3598 11.0511C29.2669 10.9432 29.1455 10.8637 29.0095 10.8217C27.9661 10.4883 26.2061 9.945 24.4678 9.485C22.6911 9.01667 21.0561 8.66667 20.2061 8.66667C19.3561 8.66667 17.7228 9.01667 15.9445 9.485ZM15.5178 7.875C17.2561 7.415 19.1011 7 20.2061 7C21.3095 7 23.1561 7.415 24.8945 7.875C26.445 8.29129 27.9854 8.7442 29.5145 9.23333C30.3945 9.51333 31.0578 10.2717 31.1861 11.2067C32.1411 18.2017 29.9261 23.385 27.2411 26.815C26.0969 28.287 24.7385 29.5792 23.2111 30.6483C22.68 31.0203 22.1186 31.347 21.5328 31.625C21.0828 31.8317 20.6028 32 20.2061 32C19.8095 32 19.3295 31.8317 18.8795 31.625C18.2935 31.3473 17.7321 31.0206 17.2011 30.6483C15.6744 29.579 14.3165 28.2869 13.1728 26.815C10.4845 23.385 8.27113 18.2017 9.22613 11.2067C9.28998 10.7535 9.48088 10.3276 9.77672 9.97836C10.0726 9.62913 10.4612 9.37082 10.8978 9.23333C12.4269 8.74421 13.9673 8.2913 15.5178 7.875Z" fill="#29A04C"/>
<path fill-rule="evenodd" clip-rule="evenodd" d="M20.2062 15.3335C20.4272 15.3335 20.6392 15.4213 20.7955 15.5776C20.9518 15.7339 21.0396 15.9458 21.0396 16.1668V19.5002C21.0396 19.7212 20.9518 19.9331 20.7955 20.0894C20.6392 20.2457 20.4272 20.3335 20.2062 20.3335H16.8729C16.6519 20.3335 16.4399 20.2457 16.2836 20.0894C16.1273 19.9331 16.0396 19.7212 16.0396 19.5002C16.0396 19.2791 16.1273 19.0672 16.2836 18.9109C16.4399 18.7546 16.6519 18.6668 16.8729 18.6668H19.3729V16.1668C19.3729 15.9458 19.4607 15.7339 19.617 15.5776C19.7732 15.4213 19.9852 15.3335 20.2062 15.3335Z" fill="#29A04C"/>
<path fill-rule="evenodd" clip-rule="evenodd" d="M19.3726 19.5003C19.3726 19.2793 19.4604 19.0674 19.6166 18.9111C19.7729 18.7548 19.9849 18.667 20.2059 18.667H23.5392C23.7602 18.667 23.9722 18.7548 24.1285 18.9111C24.2848 19.0674 24.3726 19.2793 24.3726 19.5003C24.3726 19.7213 24.2848 19.9333 24.1285 20.0896C23.9722 20.2459 23.7602 20.3337 23.5392 20.3337H21.0392V22.8337C21.0392 23.0547 20.9514 23.2666 20.7951 23.4229C20.6389 23.5792 20.4269 23.667 20.2059 23.667C19.9849 23.667 19.7729 23.5792 19.6166 23.4229C19.4604 23.2666 19.3726 23.0547 19.3726 22.8337V19.5003Z" fill="#29A04C"/>
</svg>
