<svg width="40" height="40" viewBox="0 0 40 40" fill="none" xmlns="http://www.w3.org/2000/svg">
<circle cx="20" cy="20" r="20" fill="#C0BDFF"/>
<path d="M22.0883 19.4006H21.8771V18.801C21.8771 18.6888 21.8658 18.5791 21.8452 18.4725L22.1214 18.3197C22.4207 18.1542 22.5233 17.7874 22.3505 17.5006C22.1777 17.2138 21.795 17.1156 21.4957 17.2812L21.2186 17.4344C21.0452 17.2923 20.8448 17.1798 20.6256 17.1053V16.7998C20.6256 16.4686 20.3454 16.2002 19.9999 16.2002C19.6543 16.2002 19.3741 16.4686 19.3741 16.7998V17.1053C19.1549 17.1798 18.9545 17.2923 18.7812 17.4344L18.5041 17.2812C18.2047 17.1155 17.822 17.2138 17.6493 17.5006C17.4764 17.7874 17.579 18.1542 17.8783 18.3197L18.1545 18.4725C18.1339 18.5791 18.1226 18.6888 18.1226 18.801V19.4006H17.9114C17.5659 19.4006 17.2856 19.6691 17.2856 20.0003C17.2856 20.3314 17.5659 20.5999 17.9114 20.5999H18.1226V21.1995C18.1226 21.3117 18.1339 21.4214 18.1545 21.528L17.8783 21.6807C17.579 21.8464 17.4764 22.213 17.6493 22.4999C17.7652 22.6922 17.9755 22.7997 18.1918 22.7997C18.298 22.7997 18.4056 22.7738 18.5041 22.7193L18.7812 22.5659C18.9545 22.7081 19.155 22.8205 19.3742 22.8951V23.2006C19.3742 23.5317 19.6544 23.8002 19.9999 23.8002C20.3455 23.8002 20.6257 23.5317 20.6257 23.2006V22.8951C20.8449 22.8206 21.0453 22.7081 21.2187 22.5659L21.4958 22.7193C21.5943 22.7738 21.7019 22.7997 21.808 22.7997C22.0243 22.7997 22.2346 22.6922 22.3506 22.4999C22.5234 22.2131 22.4209 21.8464 22.1215 21.6807L21.8453 21.528C21.866 21.4213 21.8772 21.3117 21.8772 21.1995V20.5999H22.0884C22.434 20.5999 22.7142 20.3314 22.7142 20.0003C22.7142 19.6691 22.4339 19.4006 22.0883 19.4006Z" fill="#706BE5"/>
<path d="M35.026 19.5799L33.5061 18.0601C33.2742 17.8283 32.8983 17.8282 32.6663 18.0601C32.4345 18.292 32.4345 18.6679 32.6663 18.8998L33.1726 19.406H27.6959C27.5673 17.7234 26.8966 16.1902 25.8588 14.9805L29.7343 11.1051V11.821C29.7343 12.1489 30.0001 12.4147 30.328 12.4147C30.6559 12.4147 30.9218 12.1489 30.9218 11.821L30.9218 9.6716C30.9218 9.51414 30.8593 9.36309 30.7479 9.25176C30.6366 9.14044 30.4856 9.07785 30.3281 9.07785H28.1787C27.8509 9.07785 27.585 9.34368 27.585 9.6716C27.585 9.99953 27.8509 10.2653 28.1787 10.2653H28.8946L25.0191 14.1408C23.8095 13.103 22.2763 12.4323 20.5936 12.3037V6.82696L21.0999 7.33319C21.2158 7.44915 21.3678 7.5071 21.5197 7.5071C21.6717 7.5071 21.8236 7.44915 21.9396 7.33319C22.1714 7.10133 22.1714 6.72537 21.9396 6.49351L20.4197 4.9737C20.1878 4.74184 19.8119 4.74184 19.5799 4.9737L18.0601 6.49351C17.8282 6.72537 17.8282 7.10133 18.0601 7.33319C18.292 7.56511 18.6678 7.56511 18.8998 7.33319L19.406 6.82696V12.3036C17.7233 12.4322 16.1902 13.103 14.9805 14.1407L11.1051 10.2653H11.821C12.1489 10.2653 12.4148 9.99947 12.4148 9.67154C12.4148 9.34362 12.1489 9.0778 11.821 9.0778H9.67163C9.51417 9.0778 9.36312 9.14038 9.25179 9.2517C9.14047 9.36303 9.07788 9.51408 9.07788 9.67154L9.07794 11.8209C9.07794 12.1488 9.34382 12.4147 9.67169 12.4147C9.99962 12.4147 10.2654 12.1488 10.2654 11.8209V11.105L14.1409 14.9805C13.1031 16.1901 12.4324 17.7233 12.3038 19.406H6.82704L7.33327 18.8997C7.56513 18.6679 7.56513 18.2919 7.33327 18.0601C7.10147 17.8282 6.72563 17.8282 6.49353 18.0601L4.97371 19.5799C4.86239 19.6913 4.7998 19.8423 4.7998 19.9998C4.7998 20.1572 4.86239 20.3083 4.97371 20.4196L6.49359 21.9394C6.60955 22.0554 6.76149 22.1133 6.91343 22.1133C7.06537 22.1133 7.21731 22.0554 7.33327 21.9394C7.56513 21.7076 7.56513 21.3316 7.33327 21.0997L6.82704 20.5935H12.3037C12.4323 22.2761 13.1031 23.8094 14.1408 25.019L10.2654 28.8945V28.1786C10.2654 27.8506 9.99956 27.5848 9.67163 27.5848C9.34376 27.5848 9.07788 27.8506 9.07788 28.1786L9.07783 30.3279C9.07783 30.4854 9.14041 30.6364 9.25173 30.7478C9.36306 30.8591 9.51411 30.9217 9.67157 30.9217H11.821C12.1489 30.9217 12.4148 30.6559 12.4148 30.3279C12.4148 30 12.1489 29.7342 11.821 29.7342H11.1051L14.9805 25.8587C16.1902 26.8965 17.7234 27.5672 19.406 27.6959V33.1726L18.8998 32.6663C18.6679 32.4344 18.292 32.4344 18.0601 32.6663C17.8282 32.8981 17.8282 33.2741 18.0601 33.506L19.5799 35.0259C19.6959 35.1419 19.8478 35.1998 19.9998 35.1998C20.1517 35.1998 20.3037 35.1419 20.4196 35.0259L21.9395 33.506C22.1714 33.2742 22.1714 32.8982 21.9395 32.6663C21.7076 32.4344 21.3317 32.4344 21.0998 32.6663L20.5935 33.1726V27.6959C22.2762 27.5672 23.8094 26.8965 25.019 25.8587L28.8945 29.7342H28.1787C27.8508 29.7342 27.5849 30 27.5849 30.3279C27.5849 30.6559 27.8508 30.9217 28.1787 30.9217H30.328C30.4855 30.9217 30.6365 30.8591 30.7479 30.7478C30.8592 30.6364 30.9218 30.4854 30.9218 30.3279L30.9217 28.1786C30.9217 27.8507 30.6558 27.5848 30.328 27.5848C30.0001 27.5848 29.7342 27.8507 29.7342 28.1786V28.8945L25.8588 25.019C26.8965 23.8094 27.5673 22.2761 27.6959 20.5935H33.1726L32.6663 21.0997C32.4345 21.3316 32.4345 21.7076 32.6663 21.9394C32.7823 22.0554 32.9342 22.1134 33.0862 22.1133C33.2381 22.1133 33.3901 22.0553 33.506 21.9394L35.0259 20.4196C35.1372 20.3083 35.1998 20.1572 35.1998 19.9998C35.1998 19.8423 35.1373 19.6913 35.026 19.5799ZM19.9998 26.531C16.3985 26.531 13.4686 23.6011 13.4686 19.9998C13.4686 16.3985 16.3985 13.4686 19.9998 13.4686C23.6012 13.4686 26.5311 16.3985 26.5311 19.9998C26.5311 23.6011 23.6012 26.531 19.9998 26.531Z" fill="#706BE5"/>
</svg>
